<?xml version="1.0" encoding="UTF-8" standalone="no"?>
<!-- Created with Inkscape (http://www.inkscape.org/) -->

<svg
   xmlns:dc="http://purl.org/dc/elements/1.1/"
   xmlns:cc="http://creativecommons.org/ns#"
   xmlns:rdf="http://www.w3.org/1999/02/22-rdf-syntax-ns#"
   xmlns:svg="http://www.w3.org/2000/svg"
   xmlns="http://www.w3.org/2000/svg"
   xmlns:sodipodi="http://sodipodi.sourceforge.net/DTD/sodipodi-0.dtd"
   xmlns:inkscape="http://www.inkscape.org/namespaces/inkscape"
   width="1052.3622"
   height="744.09448"
   id="svg3822"
   version="1.1"
   inkscape:version="0.48.4 r9939"
   sodipodi:docname="flourish.svg">
  <defs
     id="defs3824">
    <inkscape:path-effect
       effect="skeletal"
       id="path-effect4414"
       is_visible="true"
       pattern="m 38.215822,277.29554 0,10 10,-5 z"
       copytype="single_stretched"
       prop_scale="1"
       scale_y_rel="false"
       spacing="0"
       normal_offset="0"
       tang_offset="0"
       prop_units="false"
       vertical_pattern="false"
       fuse_tolerance="0" />
    <inkscape:path-effect
       effect="spiro"
       id="path-effect4412"
       is_visible="true" />
    <inkscape:path-effect
       effect="skeletal"
       id="path-effect4402"
       is_visible="true"
       pattern="M 0,0 0,10 10,5 z"
       copytype="single_stretched"
       prop_scale="1"
       scale_y_rel="false"
       spacing="0"
       normal_offset="0"
       tang_offset="0"
       prop_units="false"
       vertical_pattern="false"
       fuse_tolerance="0" />
    <inkscape:path-effect
       effect="spiro"
       id="path-effect4400"
       is_visible="true" />
    <inkscape:path-effect
       effect="skeletal"
       id="path-effect4378"
       is_visible="true"
       pattern="m 6.3990873,298.72956 0,10 10.0000007,-5 z"
       copytype="single_stretched"
       prop_scale="1"
       scale_y_rel="false"
       spacing="0"
       normal_offset="0"
       tang_offset="0"
       prop_units="false"
       vertical_pattern="false"
       fuse_tolerance="0" />
    <inkscape:path-effect
       effect="spiro"
       id="path-effect4376"
       is_visible="true" />
    <inkscape:path-effect
       effect="skeletal"
       id="path-effect4372"
       is_visible="true"
       pattern="m -145.51687,419.2137 0,10 10,-5 z"
       copytype="single_stretched"
       prop_scale="1"
       scale_y_rel="false"
       spacing="0"
       normal_offset="0"
       tang_offset="0"
       prop_units="false"
       vertical_pattern="false"
       fuse_tolerance="0" />
    <inkscape:path-effect
       effect="spiro"
       id="path-effect4370"
       is_visible="true" />
    <inkscape:path-effect
       effect="skeletal"
       id="path-effect4366"
       is_visible="true"
       pattern="M 0,0 0,10 10,5 z"
       copytype="single_stretched"
       prop_scale="1"
       scale_y_rel="false"
       spacing="0"
       normal_offset="0"
       tang_offset="0"
       prop_units="false"
       vertical_pattern="false"
       fuse_tolerance="0" />
    <inkscape:path-effect
       effect="spiro"
       id="path-effect4364"
       is_visible="true" />
    <inkscape:path-effect
       effect="skeletal"
       id="path-effect3852"
       is_visible="true"
       pattern="M 0,0 0,10 10,5 z"
       copytype="single_stretched"
       prop_scale="1"
       scale_y_rel="false"
       spacing="0"
       normal_offset="0"
       tang_offset="0"
       prop_units="false"
       vertical_pattern="false"
       fuse_tolerance="0" />
    <inkscape:path-effect
       effect="spiro"
       id="path-effect3850"
       is_visible="true" />
    <inkscape:path-effect
       effect="skeletal"
       id="path-effect3840"
       is_visible="true"
       pattern="M 0,0 0,10 10,5 z"
       copytype="single_stretched"
       prop_scale="1"
       scale_y_rel="false"
       spacing="0"
       normal_offset="0"
       tang_offset="0"
       prop_units="false"
       vertical_pattern="false"
       fuse_tolerance="0" />
    <inkscape:path-effect
       effect="spiro"
       id="path-effect3838"
       is_visible="true" />
    <inkscape:path-effect
       effect="skeletal"
       id="path-effect3834"
       is_visible="true"
       pattern="m -10.50861,318.77631 0,10 10.00000047,-5 z"
       copytype="single_stretched"
       prop_scale="1"
       scale_y_rel="false"
       spacing="0"
       normal_offset="0"
       tang_offset="0"
       prop_units="false"
       vertical_pattern="false"
       fuse_tolerance="0" />
    <inkscape:path-effect
       effect="spiro"
       id="path-effect3832"
       is_visible="true" />
  </defs>
  <sodipodi:namedview
     id="base"
     pagecolor="#ffffff"
     bordercolor="#666666"
     borderopacity="1.0"
     inkscape:pageopacity="0.0"
     inkscape:pageshadow="2"
     inkscape:zoom="0.94203661"
     inkscape:cx="376.87017"
     inkscape:cy="739.0336"
     inkscape:document-units="px"
     inkscape:current-layer="layer1"
     showgrid="false"
     inkscape:window-width="1919"
     inkscape:window-height="2160"
     inkscape:window-x="0"
     inkscape:window-y="0"
     inkscape:window-maximized="0" />
  <metadata
     id="metadata3827">
    <rdf:RDF>
      <cc:Work
         rdf:about="">
        <dc:format>image/svg+xml</dc:format>
        <dc:type
           rdf:resource="http://purl.org/dc/dcmitype/StillImage" />
        <dc:title></dc:title>
      </cc:Work>
    </rdf:RDF>
  </metadata>
  <g
     inkscape:label="Layer 1"
     inkscape:groupmode="layer"
     id="layer1"
     transform="translate(0,-308.2677)">
    <path
       style="fill:none;fill-rule:evenodd;stroke:#000000;stroke-opacity:1;stroke-width:3;stroke-miterlimit:4;stroke-dasharray:none"
       d="m -8.9309459,416.75454 8.8545122,4.64732 C 18.727101,385.31027 43.795598,352.46852 73.449007,324.4951 103.10494,296.52437 137.38202,273.38758 174.58495,256.68724 c 1e-5,0 2e-5,-10e-6 4e-5,-2e-5 37.20075,-16.70514 77.30546,-26.96362 117.99257,-30.54641 10e-6,0 3e-5,0 4e-5,-10e-6 40.6874,-3.57969 82.00682,-0.4882 121.63463,9.48146 49.00493,12.29675 95.06744,34.75602 140.02173,58.71214 10e-6,10e-6 2e-5,10e-6 3e-5,2e-5 45.22565,24.12797 89.85809,50.04299 137.48609,69.81939 47.4815,19.73683 98.6214,33.15074 150.19502,30.89019 25.8922,-1.14689 51.6472,-6.52575 75.61068,-16.42068 23.7821,-9.816 45.79456,-24.2755 63.31988,-43.15821 2e-5,-2e-5 4e-5,-4e-5 6e-5,-6e-5 23.16838,-24.97135 38.25468,-57.54168 41.12198,-91.4565 2.8619,-33.91771 -6.8023,-68.9289 -27.57584,-95.83709 -10.40047,-13.4635 -23.55671,-24.7511 -38.35932,-33.08493 -14.77432,-8.32 -31.24191,-13.69314 -48.11919,-15.27395 -3e-5,-3e-6 -6e-5,-6e-6 -9e-5,-8e-6 -16.90899,-1.580799 -34.12819,0.719398 -50.07679,6.470928 -15.91698,5.73816 -30.61604,14.96643 -42.34298,27.14965 -2e-5,2e-5 -4e-5,4e-5 -6e-5,6e-5 -11.80022,12.26379 -20.45634,27.43774 -25.39762,43.69011 -4.94256,16.25202 -6.19201,33.65474 -3.22431,50.36255 2.96911,16.70756 10.132,32.59045 20.34289,46.10977 10.21053,13.51958 23.51492,24.73593 38.72868,32.1397 -15.17037,-7.49229 -28.38706,-18.77463 -38.49218,-32.31725 -10.10476,-13.54288 -17.14324,-29.40711 -19.99674,-46.03399 -2.85491,-16.62665 -1.50625,-33.90545 3.48973,-50.00021 4.99724,-16.09436 13.66464,-31.07751 25.39954,-43.12799 10e-6,-1e-5 2e-5,-2e-5 3e-5,-3e-5 11.65888,-11.97677 26.24328,-21.00548 41.98995,-26.5817 15.78089,-5.58639 32.78021,-7.753217 49.40987,-6.09853 16.60334,1.6491 32.78317,7.04086 47.27087,15.30754 14.51547,8.28463 27.38271,19.45881 37.50607,32.72537 20.24309,26.51154 29.49849,60.96612 26.51029,94.14391 -2.9837,33.19045 -17.9893,65.01749 -40.7711,89.29985 -17.22781,18.36888 -38.88255,32.38848 -62.24329,41.88603 -23.5566,9.57317 -48.86791,14.695 -74.28483,15.67845 -50.68391,1.98514 -101.02271,-11.60893 -147.95566,-31.37575 -47.08481,-19.85208 -91.37494,-45.93553 -136.59715,-70.38862 -3e-5,-10e-6 -6e-5,-3e-5 -8e-5,-4e-5 -44.93158,-24.32307 -91.33995,-47.24198 -141.21046,-60.12448 -40.36541,-10.40111 -82.4925,-13.81057 -124.05439,-10.39471 -3e-5,0 -6e-5,1e-5 -9e-5,1e-5 -41.56209,3.41276 -82.60727,13.65464 -120.81032,30.53722 -2e-5,1e-5 -5e-5,3e-5 -8e-5,4e-5 -38.20095,16.88743 -73.442237,40.36371 -104.000788,68.85624 -30.56107,28.48984 -56.474832,62.02875 -76.0332079,99.02784 z"
       id="path4362"
       inkscape:path-effect="#path-effect4364;#path-effect4366"
       inkscape:original-d="M -4.5036898,419.0782 C 261.21401,232.17508 -13.511069,3.9881257 415.09008,232.17508 843.69122,460.36203 1002.071,512.15446 979.55253,334.25871 957.03408,156.36296 876.71828,-8.7723287 815.91847,133.84451 c -60.79981,142.61685 -36.78014,230.4388 30.0246,171.89083"
       inkscape:connector-curvature="0"
       transform="translate(0,308.2677)" />
    <path
       style="fill:none;stroke:#000000;stroke-width:3;stroke-miterlimit:4;stroke-opacity:1;stroke-dasharray:none"
       d="m -8.8822732,724.88654 8.8175966,4.71698 C 18.699179,694.01803 50.424911,665.16003 87.796636,649.82376 c 37.365414,-15.35189 80.371084,-17.17682 119.046734,-4.94805 38.67998,12.21529 72.98613,38.47298 94.92742,72.78748 1e-5,10e-6 1e-5,10e-6 2e-5,2e-5 21.95097,34.30839 31.49044,76.60482 26.32045,117.17316 -2.64025,20.64649 -9.00977,40.95807 -20.01302,58.56549 -10e-6,2e-5 -2e-5,3e-5 -2e-5,4e-5 -10.99703,17.59669 -26.73837,32.48309 -45.62354,41.05028 -18.86679,8.56235 -40.97577,10.62224 -60.69798,4.18753 -19.70075,-6.41957 -36.81476,-21.63721 -44.12348,-41.09632 -1e-5,-1e-5 -1e-5,-2e-5 -2e-5,-4e-5 -4.28995,-11.39709 -5.24786,-24.06555 -2.70195,-36.01526 1e-5,-10e-6 1e-5,-3e-5 1e-5,-4e-5 2.54486,-11.94993 8.59093,-23.16753 17.20927,-31.88444 8.61784,-8.71743 19.79403,-14.91971 31.79241,-17.61897 11.99831,-2.69962 24.79318,-1.89024 36.38985,2.32335 -11.54904,-4.34244 -24.37178,-5.30819 -36.47806,-2.7259 -12.1062,2.58263 -23.45794,8.70534 -32.28707,17.43879 -8.8286,8.73394 -15.10246,20.047 -17.83411,32.20281 -10e-6,2e-5 -10e-6,3e-5 -10e-6,5e-5 -2.73059,12.15605 -1.90763,25.10481 2.36364,36.85151 7.30909,20.05762 24.63949,35.90827 44.92885,42.75685 20.2861,6.83947 43.07927,5.02825 62.68715,-3.63057 19.59903,-8.65826 36.02357,-23.7863 47.55353,-41.83066 10e-6,-1e-5 10e-6,-2e-5 2e-5,-4e-5 11.52632,-18.03774 18.338,-38.83231 21.25989,-59.9856 5.76053,-41.57518 -3.49734,-85.13275 -25.80135,-120.88527 -10e-6,-10e-6 -10e-6,-2e-5 -2e-5,-3e-5 -22.31369,-35.74639 -57.46044,-63.34535 -97.65357,-76.5478 -40.19749,-13.18899 -85.02233,-11.84358 -124.492218,3.84274 -39.463577,15.70194 -73.127045,45.56788 -93.4517352,83.05167 z"
       id="path4368"
       inkscape:path-effect="#path-effect4370;#path-effect4372"
       inkscape:original-d="M -4.4734749,727.24503 C 258.58618,708.78848 373.78578,738.80226 330.30394,835.1308 c -43.48183,96.32854 -191.38358,164.44437 -173.44375,62.6985 17.93982,-101.7458 71.86575,-119.18332 83.4626,-83.48131"
       inkscape:connector-curvature="0" />
  </g>
</svg>
